<svg version="1.1" id="Layer_1" xmlns="http://www.w3.org/2000/svg" xmlns:xlink="http://www.w3.org/1999/xlink" x="0px" y="0px"
	 width="100%" viewBox="0 0 2000 1500" enable-background="new 0 0 2000 1500" xml:space="preserve">
<path fill="#22586A" opacity="1.000000" stroke="none" 
	d="
M1065.000000,1501.000000 
	C710.000122,1501.000000 355.500214,1501.000000 1.000238,1501.000000 
	C1.000159,1001.000244 1.000159,501.000519 1.000079,1.000573 
	C667.666199,1.000382 1334.332397,1.000382 2000.999023,1.000191 
	C2000.999268,500.999390 2000.999268,1000.998779 2000.999634,1500.999023 
	C1689.166626,1501.000000 1377.333374,1501.000000 1065.000000,1501.000000 
M562.808960,1079.552612 
	C565.178955,1063.421875 567.183228,1047.227539 569.981628,1031.171387 
	C582.759338,957.858215 595.764343,884.584656 608.674805,811.294556 
	C610.192566,802.678528 611.631042,794.048584 613.167603,785.067017 
	C584.092468,785.067017 555.702209,785.067017 527.128601,785.067017 
	C523.053833,808.359192 519.030090,831.311462 515.024231,854.266724 
	C504.176788,916.426880 493.377777,978.595581 482.474792,1040.745972 
	C477.895050,1066.851929 473.747040,1092.863403 475.795685,1119.643188 
	C479.869965,1172.902222 510.914246,1213.557495 561.697327,1229.914429 
	C594.554871,1240.497681 628.270935,1241.654297 662.025269,1235.927124 
	C743.083923,1222.173950 798.541138,1177.191040 825.966125,1099.050781 
	C835.615417,1071.557495 838.826599,1042.614746 843.942505,1014.130371 
	C855.979614,947.110352 867.729187,880.038574 879.582336,812.985535 
	C881.197083,803.850708 882.738342,794.702881 884.330383,785.464172 
	C883.159485,785.119568 882.541992,784.779724 881.923950,784.778687 
	C855.093811,784.734863 828.263245,784.674133 801.434448,784.855652 
	C800.217773,784.863892 798.216248,786.931091 797.936096,788.313965 
	C795.986755,797.937378 794.396362,807.633484 792.690308,817.306213 
	C781.093811,883.052368 769.599854,948.816895 757.843323,1014.534424 
	C753.888123,1036.643555 750.346741,1058.916382 744.672546,1080.605713 
	C737.664795,1107.392700 722.850647,1129.725220 698.669373,1144.250732 
	C668.960205,1162.096802 636.930054,1164.330078 604.242065,1154.392700 
	C582.684143,1147.838745 569.579895,1132.328735 565.236938,1110.305176 
	C563.322449,1100.596436 563.515686,1090.472046 562.808960,1079.552612 
M1125.169556,1042.279785 
	C1100.505737,1042.290405 1075.841797,1042.246094 1051.178101,1042.325562 
	C1019.789673,1042.426636 989.119080,1046.279663 959.912598,1058.826294 
	C915.014832,1078.113403 891.272766,1113.480957 893.043640,1160.639038 
	C894.101074,1188.796387 906.712708,1210.890747 931.513184,1224.911377 
	C957.948975,1239.856445 986.859741,1241.129150 1016.036926,1237.423950 
	C1051.552856,1232.913818 1080.392700,1215.918091 1102.651733,1187.868774 
	C1103.523682,1186.769897 1103.671875,1185.096558 1104.157349,1183.690918 
	C1104.750244,1184.323730 1105.343262,1184.956543 1105.936279,1185.589355 
	C1105.936279,1200.654785 1105.936279,1215.720215 1105.936279,1231.243408 
	C1108.150391,1231.243408 1110.127808,1231.243286 1112.105347,1231.243286 
	C1132.769409,1231.243286 1153.436768,1231.038086 1174.094971,1231.385498 
	C1179.358398,1231.473999 1181.104492,1229.899292 1181.989624,1224.795044 
	C1193.054077,1160.986816 1204.338013,1097.216553 1215.603516,1033.443237 
	C1218.934692,1014.585693 1220.428833,995.685242 1215.486084,976.926575 
	C1206.552246,943.019348 1183.801025,921.648132 1151.396118,911.250244 
	C1104.640137,896.247314 1058.017578,898.609314 1012.734619,917.797424 
	C978.627380,932.250000 952.041138,955.465881 935.389954,989.026917 
	C931.386047,997.097046 928.555725,1005.749451 925.096252,1014.356567 
	C926.868835,1014.745667 927.350952,1014.943726 927.833313,1014.944275 
	C953.829651,1014.972778 979.826538,1015.053955 1005.820801,1014.832458 
	C1007.447205,1014.818604 1009.786316,1012.757751 1010.553833,1011.081482 
	C1017.243591,996.470093 1027.855225,985.959778 1042.568115,979.596069 
	C1061.758057,971.295776 1081.577881,969.944641 1101.724609,975.091980 
	C1116.029541,978.746765 1125.118408,988.034485 1128.452759,1002.543213 
	C1131.303955,1014.950073 1130.361206,1027.376953 1128.020752,1039.742065 
	C1127.848633,1040.651245 1126.755737,1041.386230 1125.169556,1042.279785 
M1284.467285,1122.911743 
	C1278.223145,1158.760132 1271.979004,1194.608521 1265.664673,1230.859741 
	C1267.809326,1231.021973 1269.265381,1231.226807 1270.721558,1231.228027 
	C1296.210938,1231.247437 1321.701172,1231.131104 1347.188599,1231.353638 
	C1351.336304,1231.389771 1352.121826,1229.453857 1352.687256,1226.201538 
	C1357.076904,1200.950562 1361.492920,1175.703735 1366.010742,1150.475342 
	C1370.938843,1122.956299 1375.061279,1095.250854 1381.191162,1067.999023 
	C1390.963623,1024.552124 1417.360229,1000.596802 1460.957886,995.051086 
	C1476.409180,993.085632 1492.190308,993.630981 1507.826172,993.261841 
	C1511.181030,993.182617 1512.782104,992.586609 1513.333374,988.804504 
	C1515.157471,976.291565 1517.484741,963.852539 1519.580933,951.378784 
	C1522.307373,935.154114 1524.997314,918.923401 1527.852661,901.796814 
	C1474.154053,903.419861 1431.139282,925.177002 1397.024780,967.185059 
	C1397.685669,947.336365 1398.299194,928.913147 1398.919067,910.300537 
	C1397.623779,910.067871 1396.839478,909.804810 1396.054810,909.803894 
	C1372.398193,909.774780 1348.741211,909.816956 1325.085083,909.711243 
	C1321.846069,909.696777 1321.353516,911.433899 1320.918091,913.996643 
	C1318.157715,930.240906 1315.267334,946.463074 1312.437866,962.695679 
	C1303.177734,1015.820496 1293.925415,1068.946777 1284.467285,1122.911743 
M876.966064,641.450806 
	C945.137390,658.798950 1009.460632,615.413940 1018.250610,546.156616 
	C1026.370972,482.176178 975.964783,423.240021 911.317383,421.127563 
	C847.612061,419.045837 795.407043,468.825317 794.752441,532.276428 
	C794.230286,582.897400 828.028748,628.099487 876.966064,641.450806 
M1096.945435,362.603851 
	C1096.269897,358.902069 1094.859985,355.159058 1095.064941,351.506714 
	C1095.561279,342.665833 1100.125610,337.506897 1109.620850,337.532471 
	C1112.224731,337.539490 1114.982544,336.895691 1117.405518,335.904694 
	C1122.631958,333.767090 1125.096069,336.164673 1126.538452,340.764587 
	C1128.032837,345.530945 1130.646973,350.163757 1125.827026,354.907349 
	C1124.625610,356.089783 1124.400391,360.009491 1125.435669,361.381744 
	C1128.191772,365.034973 1126.699707,368.549164 1126.603638,372.254517 
	C1126.359253,381.676361 1126.094116,391.131683 1126.651489,400.525330 
	C1126.913086,404.937164 1129.906128,408.645142 1134.610474,409.803589 
	C1135.846069,410.107819 1138.139893,409.257690 1138.707275,408.243622 
	C1139.267944,407.241547 1138.747314,404.507294 1137.862549,404.002472 
	C1131.025513,400.101746 1133.038330,393.566681 1131.984375,386.898712 
	C1134.975952,390.848663 1137.049683,394.249023 1139.828979,396.913269 
	C1140.864014,397.905426 1143.549072,397.176239 1145.481689,397.231995 
	C1145.209229,395.466461 1145.564697,393.129517 1144.562378,392.027954 
	C1137.979126,384.792480 1135.231812,375.169922 1137.382935,367.022339 
	C1139.202759,360.128906 1140.239136,355.657135 1136.244019,349.372742 
	C1133.386719,344.878265 1133.219116,338.674042 1131.781738,332.955688 
	C1136.638672,331.924744 1142.117798,331.167358 1147.291138,329.475037 
	C1149.533325,328.741608 1151.810059,326.407410 1152.882568,324.218048 
	C1154.372681,321.176300 1152.699707,318.673035 1149.780884,316.751434 
	C1122.526123,298.808472 1095.361206,280.728821 1068.068604,262.843872 
	C1066.338257,261.709930 1063.608154,261.124939 1061.600464,261.537292 
	C1031.619263,267.694702 1001.689331,274.101013 971.723450,280.334229 
	C968.000793,281.108551 965.750732,282.824738 965.101685,286.668182 
	C964.482239,290.335724 966.662659,292.104218 969.306458,293.834534 
	C980.032166,300.854065 990.715393,307.938782 1001.400513,315.020111 
	C1007.471191,319.043304 1007.540405,322.786224 1001.949707,327.804108 
	C985.244141,342.798035 978.252441,361.447174 982.673706,383.522919 
	C988.785156,414.038269 1018.093628,434.545654 1047.645508,429.691315 
	C1080.382568,424.313721 1101.005615,396.655121 1096.945435,362.603851 
M1132.998535,570.408203 
	C1133.365723,568.617859 1133.960815,566.840820 1134.066406,565.035217 
	C1136.253662,527.626526 1125.651855,494.618866 1099.298706,467.521027 
	C1083.624634,451.404053 1064.390991,442.263031 1041.570801,441.655853 
	C1027.904785,441.292236 1015.016724,444.199615 1002.892944,450.661652 
	C1038.172241,496.560059 1042.614502,544.991821 1016.634338,596.753235 
	C1019.056580,596.753235 1020.843018,596.753235 1022.629517,596.753235 
	C1047.282104,596.753235 1071.934814,596.753235 1096.587402,596.753235 
	C1116.440308,596.753235 1126.204102,589.866821 1132.998535,570.408203 
z"/>
<path fill="#68B6FF" opacity="1.000000" stroke="none" 
	d="
M562.780518,1080.044434 
	C563.515686,1090.472046 563.322449,1100.596436 565.236938,1110.305176 
	C569.579895,1132.328735 582.684143,1147.838745 604.242065,1154.392700 
	C636.930054,1164.330078 668.960205,1162.096802 698.669373,1144.250732 
	C722.850647,1129.725220 737.664795,1107.392700 744.672546,1080.605713 
	C750.346741,1058.916382 753.888123,1036.643555 757.843323,1014.534424 
	C769.599854,948.816895 781.093811,883.052368 792.690308,817.306213 
	C794.396362,807.633484 795.986755,797.937378 797.936096,788.313965 
	C798.216248,786.931091 800.217773,784.863892 801.434448,784.855652 
	C828.263245,784.674133 855.093811,784.734863 881.923950,784.778687 
	C882.541992,784.779724 883.159485,785.119568 884.330383,785.464172 
	C882.738342,794.702881 881.197083,803.850708 879.582336,812.985535 
	C867.729187,880.038574 855.979614,947.110352 843.942505,1014.130371 
	C838.826599,1042.614746 835.615417,1071.557495 825.966125,1099.050781 
	C798.541138,1177.191040 743.083923,1222.173950 662.025269,1235.927124 
	C628.270935,1241.654297 594.554871,1240.497681 561.697327,1229.914429 
	C510.914246,1213.557495 479.869965,1172.902222 475.795685,1119.643188 
	C473.747040,1092.863403 477.895050,1066.851929 482.474792,1040.745972 
	C493.377777,978.595581 504.176788,916.426880 515.024231,854.266724 
	C519.030090,831.311462 523.053833,808.359192 527.128601,785.067017 
	C555.702209,785.067017 584.092468,785.067017 613.167603,785.067017 
	C611.631042,794.048584 610.192566,802.678528 608.674805,811.294556 
	C595.764343,884.584656 582.759338,957.858215 569.981628,1031.171387 
	C567.183228,1047.227539 565.178955,1063.421875 562.780518,1080.044434 
z"/>
<path fill="#68B6FE" opacity="1.000000" stroke="none" 
	d="
M1125.630249,1042.240967 
	C1126.755737,1041.386230 1127.848633,1040.651245 1128.020752,1039.742065 
	C1130.361206,1027.376953 1131.303955,1014.950073 1128.452759,1002.543213 
	C1125.118408,988.034485 1116.029541,978.746765 1101.724609,975.091980 
	C1081.577881,969.944641 1061.758057,971.295776 1042.568115,979.596069 
	C1027.855225,985.959778 1017.243591,996.470093 1010.553833,1011.081482 
	C1009.786316,1012.757751 1007.447205,1014.818604 1005.820801,1014.832458 
	C979.826538,1015.053955 953.829651,1014.972778 927.833313,1014.944275 
	C927.350952,1014.943726 926.868835,1014.745667 925.096252,1014.356567 
	C928.555725,1005.749451 931.386047,997.097046 935.389954,989.026917 
	C952.041138,955.465881 978.627380,932.250000 1012.734619,917.797424 
	C1058.017578,898.609314 1104.640137,896.247314 1151.396118,911.250244 
	C1183.801025,921.648132 1206.552246,943.019348 1215.486084,976.926575 
	C1220.428833,995.685242 1218.934692,1014.585693 1215.603516,1033.443237 
	C1204.338013,1097.216553 1193.054077,1160.986816 1181.989624,1224.795044 
	C1181.104492,1229.899292 1179.358398,1231.473999 1174.094971,1231.385498 
	C1153.436768,1231.038086 1132.769409,1231.243286 1112.105347,1231.243286 
	C1110.127808,1231.243286 1108.150391,1231.243408 1105.936279,1231.243408 
	C1105.936279,1215.720215 1105.936279,1200.654785 1105.936279,1185.589355 
	C1105.343262,1184.956543 1104.750244,1184.323730 1104.157349,1183.690918 
	C1103.671875,1185.096558 1103.523682,1186.769897 1102.651733,1187.868774 
	C1080.392700,1215.918091 1051.552856,1232.913818 1016.036926,1237.423950 
	C986.859741,1241.129150 957.948975,1239.856445 931.513184,1224.911377 
	C906.712708,1210.890747 894.101074,1188.796387 893.043640,1160.639038 
	C891.272766,1113.480957 915.014832,1078.113403 959.912598,1058.826294 
	C989.119080,1046.279663 1019.789673,1042.426636 1051.178101,1042.325562 
	C1075.841797,1042.246094 1100.505737,1042.290405 1125.630249,1042.240967 
M1112.987915,1103.467285 
	C1113.645142,1100.964355 1114.302490,1098.461426 1115.018188,1095.735718 
	C1113.439575,1095.549316 1112.463867,1095.333862 1111.488037,1095.333496 
	C1090.002930,1095.325562 1068.516357,1095.189087 1047.033447,1095.408936 
	C1033.765259,1095.544678 1020.799500,1097.635498 1008.941528,1104.088745 
	C992.687500,1112.934082 985.088806,1126.746582 986.061035,1145.172974 
	C986.725464,1157.765259 996.292053,1167.650269 1011.518005,1170.850464 
	C1036.051514,1176.006836 1058.103027,1169.733154 1077.761108,1154.807617 
	C1094.867188,1141.819946 1105.855591,1124.379150 1112.987915,1103.467285 
z"/>
<path fill="#68B6FF" opacity="1.000000" stroke="none" 
	d="
M1284.568604,1122.492188 
	C1293.925415,1068.946777 1303.177734,1015.820496 1312.437866,962.695679 
	C1315.267334,946.463074 1318.157715,930.240906 1320.918091,913.996643 
	C1321.353516,911.433899 1321.846069,909.696777 1325.085083,909.711243 
	C1348.741211,909.816956 1372.398193,909.774780 1396.054810,909.803894 
	C1396.839478,909.804810 1397.623779,910.067871 1398.919067,910.300537 
	C1398.299194,928.913147 1397.685669,947.336365 1397.024780,967.185059 
	C1431.139282,925.177002 1474.154053,903.419861 1527.852661,901.796814 
	C1524.997314,918.923401 1522.307373,935.154114 1519.580933,951.378784 
	C1517.484741,963.852539 1515.157471,976.291565 1513.333374,988.804504 
	C1512.782104,992.586609 1511.181030,993.182617 1507.826172,993.261841 
	C1492.190308,993.630981 1476.409180,993.085632 1460.957886,995.051086 
	C1417.360229,1000.596802 1390.963623,1024.552124 1381.191162,1067.999023 
	C1375.061279,1095.250854 1370.938843,1122.956299 1366.010742,1150.475342 
	C1361.492920,1175.703735 1357.076904,1200.950562 1352.687256,1226.201538 
	C1352.121826,1229.453857 1351.336304,1231.389771 1347.188599,1231.353638 
	C1321.701172,1231.131104 1296.210938,1231.247437 1270.721558,1231.228027 
	C1269.265381,1231.226807 1267.809326,1231.021973 1265.664673,1230.859741 
	C1271.979004,1194.608521 1278.223145,1158.760132 1284.568604,1122.492188 
z"/>
<path fill="#F7FDCF" opacity="1.000000" stroke="none" 
	d="
M876.581055,641.324951 
	C828.028748,628.099487 794.230286,582.897400 794.752441,532.276428 
	C795.407043,468.825317 847.612061,419.045837 911.317383,421.127563 
	C975.964783,423.240021 1026.370972,482.176178 1018.250610,546.156616 
	C1009.460632,615.413940 945.137390,658.798950 876.581055,641.324951 
M832.574036,474.442230 
	C831.695984,477.145660 830.817932,479.849091 829.487915,483.944061 
	C828.581116,481.296539 828.168213,480.091125 827.739929,478.840729 
	C810.080261,500.750641 802.662598,541.927734 820.620239,577.153198 
	C838.414124,612.057495 875.231384,630.121277 902.777466,629.320496 
	C901.543213,627.246643 900.383972,625.298767 899.216614,623.337280 
	C900.598450,621.445374 901.847473,619.735229 903.069763,618.061707 
	C902.447632,616.923767 902.022156,616.019226 901.485962,615.185913 
	C898.793945,611.001526 894.448914,607.078308 893.780334,602.601013 
	C892.975159,597.209717 891.210938,593.856750 886.528564,591.810425 
	C884.498413,590.923218 882.357605,590.017456 880.194153,589.777649 
	C877.617798,589.492126 875.717896,588.866394 875.094116,586.098877 
	C875.035095,585.837097 874.562073,585.668640 874.239014,585.424988 
	C874.026306,587.043213 873.844543,588.426636 873.632812,590.037659 
	C869.607056,589.565857 865.841125,589.623901 862.381958,588.622131 
	C853.324951,585.999451 846.516907,572.111267 849.505371,563.151367 
	C849.865967,562.070435 850.133423,560.856995 850.033691,559.741699 
	C849.613403,555.043091 851.716064,552.040955 855.628479,549.565369 
	C859.371460,547.197083 863.387878,544.652710 865.943481,541.194885 
	C868.284119,538.027954 870.883118,537.198059 874.196899,536.924744 
	C876.998108,536.693665 879.812317,536.624817 882.619202,536.457031 
	C886.981079,536.196350 891.341553,535.912476 894.572021,535.709534 
	C896.239136,539.145996 896.782410,542.632324 898.554382,543.447388 
	C902.820007,545.409485 907.661011,546.120667 912.258057,547.333252 
	C913.785278,543.628052 916.461060,542.669373 919.911804,544.170471 
	C925.335571,546.529785 930.476990,545.677856 935.809937,543.436951 
	C935.640503,540.599670 935.486145,538.014404 935.325867,535.329956 
	C929.148499,537.074402 923.408936,534.696228 922.295959,529.753296 
	C928.135193,527.153137 934.080933,524.505554 940.673523,521.569885 
	C938.196289,519.781738 935.638855,517.935669 933.140381,516.132141 
	C924.051636,519.668030 920.955566,528.385315 916.459656,536.059021 
	C912.595337,530.841736 908.755432,525.657471 904.915588,520.473206 
	C904.316589,520.752319 903.717590,521.031433 903.118591,521.310547 
	C903.923828,523.381287 904.185425,526.041992 905.652771,527.394348 
	C908.331238,529.862976 907.613403,532.198975 907.326294,534.836609 
	C903.917053,531.591614 900.830383,528.699158 897.796143,525.752625 
	C894.891968,522.932434 891.053894,523.455994 888.068848,525.936890 
	C883.591858,529.657654 881.089783,536.445312 872.251221,535.496887 
	C871.456970,533.516968 869.211853,530.622253 869.407593,527.903381 
	C870.001282,519.659546 876.443359,519.916382 884.261047,520.953735 
	C882.311646,517.184937 881.097534,514.837646 879.867859,512.460266 
	C888.824585,512.802185 894.587585,507.851440 898.991516,501.941437 
	C900.667969,503.334442 902.352966,505.835114 903.848328,505.726410 
	C906.260193,505.551147 909.089233,504.161621 910.759033,502.369202 
	C913.233704,499.712799 914.848999,496.255829 916.854675,493.100983 
	C915.219788,492.952087 913.679993,492.811798 912.147461,492.672211 
	C912.567932,489.929474 912.918884,487.640381 913.269775,485.351257 
	C912.728333,485.215271 912.186829,485.079285 911.645386,484.943298 
	C909.460022,491.013489 907.274719,497.083679 904.909119,503.654694 
	C902.818481,501.130890 901.531921,499.255157 899.906494,497.743866 
	C899.017090,496.916840 896.481689,496.570801 896.523499,496.238739 
	C896.815063,493.921783 897.168457,491.416687 898.329102,489.463348 
	C899.370972,487.710022 902.096863,486.900238 902.989563,485.125732 
	C906.289307,478.566467 911.480225,476.492340 918.241150,478.124756 
	C920.874146,478.760437 923.273376,480.363953 925.828857,481.549744 
	C929.117249,476.321442 928.929871,476.399506 926.337280,470.176392 
	C925.411560,467.954285 925.635376,465.253265 925.334412,462.770874 
	C925.652832,462.777405 925.971252,462.783936 926.289673,462.790436 
	C928.323669,466.641296 930.357666,470.492157 932.393433,474.346313 
	C934.608704,472.855042 935.985168,471.928406 937.344727,471.013184 
	C935.933411,469.104645 934.514099,467.185303 933.094849,465.265991 
	C933.425720,464.987915 933.756653,464.709869 934.087524,464.431793 
	C935.375061,465.132050 936.662598,465.832275 938.201416,466.669220 
	C938.895691,464.574097 939.436829,462.941101 940.085205,460.984406 
	C931.452271,460.956573 932.803650,454.042816 930.388428,448.610107 
	C933.172913,448.610107 935.201477,448.610107 937.541565,448.610107 
	C936.842590,446.728394 936.296448,445.258057 935.604431,443.395111 
	C936.921143,443.129150 937.934326,442.924469 939.984009,442.510437 
	C922.334961,436.228577 905.444519,435.349762 888.238831,438.437042 
	C884.683411,439.075043 882.727295,440.970856 882.554138,443.124298 
	C888.371155,446.131897 893.513428,448.790649 898.204041,451.215851 
	C899.006775,455.768036 896.004944,456.908325 892.924866,458.325836 
	C891.475281,458.992981 889.618408,460.677338 889.510498,462.025970 
	C889.061707,467.631836 883.743652,469.697113 880.648865,471.283844 
	C875.294434,474.029144 868.476074,474.039886 862.221985,474.772430 
	C861.339905,474.875763 860.177124,472.582397 859.144226,471.398346 
	C862.603455,468.662598 864.239136,463.326355 870.297058,464.097809 
	C869.899048,462.579712 869.592468,461.410400 869.150818,459.725891 
	C874.890869,461.190430 877.612366,457.399384 879.606140,453.720581 
	C880.537842,452.001556 879.153809,449.027496 878.763428,446.220337 
	C876.286011,447.410492 874.823730,448.112976 873.949402,448.533020 
	C872.946167,447.114380 872.251343,445.131592 871.285889,444.989716 
	C869.638794,444.747650 867.821899,445.660980 866.076294,446.088959 
	C866.185120,446.455170 866.293945,446.821381 866.402771,447.187592 
	C867.909912,447.599213 869.417053,448.010803 870.902710,448.416534 
	C869.311707,455.451813 861.467163,461.193085 853.860474,459.914429 
	C855.559875,458.219971 856.729309,456.101257 857.809265,456.145905 
	C861.974304,456.318115 862.686218,453.637421 863.503174,450.709564 
	C859.108093,448.545746 851.827454,452.048401 846.034302,459.136322 
	C848.494568,458.724945 850.670959,458.360992 853.748901,457.846344 
	C850.908997,461.723419 852.288513,466.556793 848.187012,469.019531 
	C847.732483,469.292480 847.741760,470.255585 847.405884,470.821503 
	C844.563782,475.611176 841.779480,480.440765 838.726562,485.093475 
	C838.301636,485.741119 836.508545,485.490997 835.348816,485.656464 
	C835.269287,484.324829 834.818604,482.852448 835.250244,481.714783 
	C835.506287,481.039856 837.153320,480.892670 838.994080,480.199890 
	C836.766113,477.853302 834.847961,475.832977 832.574036,474.442230 
M970.069031,542.623535 
	C971.361877,544.450195 973.902832,546.406006 973.729553,548.080933 
	C973.015503,554.982239 963.260071,569.751709 955.486206,571.072510 
	C955.125854,566.687256 953.109253,563.486267 948.730347,561.900330 
	C947.667114,561.515198 947.083435,559.891846 946.199829,558.909302 
	C942.780884,555.107300 939.329956,551.334106 935.890869,547.550232 
	C935.535095,547.840820 935.179321,548.131470 934.823547,548.422058 
	C935.155579,549.306641 935.360413,550.268127 935.841003,551.062866 
	C938.305115,555.137451 941.155762,559.010559 943.286255,563.248230 
	C948.065613,572.754517 955.114319,575.533203 964.949280,571.387939 
	C965.300842,571.239746 965.808838,571.462769 966.469055,571.538635 
	C966.076477,572.998169 965.690369,574.242737 965.408813,575.510559 
	C963.086487,585.966553 956.310730,593.815308 950.113831,602.046692 
	C949.003967,603.520935 948.111389,606.034729 948.567139,607.663086 
	C950.757996,615.491333 950.932129,615.439331 944.598938,620.968506 
	C944.406250,621.136719 944.376770,621.491882 944.266296,621.772522 
	C979.217102,609.856812 1008.900635,566.770874 1002.597229,522.757446 
	C997.999268,529.791138 1003.669739,539.083252 997.205200,546.183655 
	C994.692566,542.328125 992.630798,539.164429 990.796570,536.349854 
	C988.813171,536.349854 986.807556,536.973633 985.800781,536.235291 
	C982.517944,533.827820 980.320374,535.665405 977.836975,537.444641 
	C972.556458,541.227905 966.758179,541.477478 960.700867,539.741760 
	C959.546387,539.410950 958.335693,539.276123 957.150940,539.050903 
	C956.876953,539.409851 956.602966,539.768860 956.328979,540.127869 
	C958.618896,543.196167 960.908875,546.264465 963.645142,549.930786 
	C965.941589,546.907104 967.721558,544.563416 970.069031,542.623535 
M873.323853,582.464722 
	C872.871948,582.639282 872.420105,582.813843 871.968201,582.988403 
	C872.450012,583.562439 872.931824,584.136475 873.413574,584.710571 
	C873.579285,584.197388 873.744934,583.684204 873.323853,582.464722 
z"/>
<path fill="#F9FECF" opacity="1.000000" stroke="none" 
	d="
M1096.983398,363.037476 
	C1101.005615,396.655121 1080.382568,424.313721 1047.645508,429.691315 
	C1018.093628,434.545654 988.785156,414.038269 982.673706,383.522919 
	C978.252441,361.447174 985.244141,342.798035 1001.949707,327.804108 
	C1007.540405,322.786224 1007.471191,319.043304 1001.400513,315.020111 
	C990.715393,307.938782 980.032166,300.854065 969.306458,293.834534 
	C966.662659,292.104218 964.482239,290.335724 965.101685,286.668182 
	C965.750732,282.824738 968.000793,281.108551 971.723450,280.334229 
	C1001.689331,274.101013 1031.619263,267.694702 1061.600464,261.537292 
	C1063.608154,261.124939 1066.338257,261.709930 1068.068604,262.843872 
	C1095.361206,280.728821 1122.526123,298.808472 1149.780884,316.751434 
	C1152.699707,318.673035 1154.372681,321.176300 1152.882568,324.218048 
	C1151.810059,326.407410 1149.533325,328.741608 1147.291138,329.475037 
	C1142.117798,331.167358 1136.638672,331.924744 1131.781738,332.955688 
	C1133.219116,338.674042 1133.386719,344.878265 1136.244019,349.372742 
	C1140.239136,355.657135 1139.202759,360.128906 1137.382935,367.022339 
	C1135.231812,375.169922 1137.979126,384.792480 1144.562378,392.027954 
	C1145.564697,393.129517 1145.209229,395.466461 1145.481689,397.231995 
	C1143.549072,397.176239 1140.864014,397.905426 1139.828979,396.913269 
	C1137.049683,394.249023 1134.975952,390.848663 1131.984375,386.898712 
	C1133.038330,393.566681 1131.025513,400.101746 1137.862549,404.002472 
	C1138.747314,404.507294 1139.267944,407.241547 1138.707275,408.243622 
	C1138.139893,409.257690 1135.846069,410.107819 1134.610474,409.803589 
	C1129.906128,408.645142 1126.913086,404.937164 1126.651489,400.525330 
	C1126.094116,391.131683 1126.359253,381.676361 1126.603638,372.254517 
	C1126.699707,368.549164 1128.191772,365.034973 1125.435669,361.381744 
	C1124.400391,360.009491 1124.625610,356.089783 1125.827026,354.907349 
	C1130.646973,350.163757 1128.032837,345.530945 1126.538452,340.764587 
	C1125.096069,336.164673 1122.631958,333.767090 1117.405518,335.904694 
	C1114.982544,336.895691 1112.224731,337.539490 1109.620850,337.532471 
	C1100.125610,337.506897 1095.561279,342.665833 1095.064941,351.506714 
	C1094.859985,355.159058 1096.269897,358.902069 1096.983398,363.037476 
M1066.048218,301.594757 
	C1064.491821,297.823517 1058.472900,295.228516 1055.652222,297.459991 
	C1054.822510,298.116455 1054.621582,301.334900 1055.247314,301.767883 
	C1058.521606,304.033264 1062.151001,305.853394 1066.048218,301.594757 
z"/>
<path fill="#F9FECF" opacity="1.000000" stroke="none" 
	d="
M1132.909058,570.803345 
	C1126.204102,589.866821 1116.440308,596.753235 1096.587402,596.753235 
	C1071.934814,596.753235 1047.282104,596.753235 1022.629517,596.753235 
	C1020.843018,596.753235 1019.056580,596.753235 1016.634338,596.753235 
	C1042.614502,544.991821 1038.172241,496.560059 1002.892944,450.661652 
	C1015.016724,444.199615 1027.904785,441.292236 1041.570801,441.655853 
	C1064.390991,442.263031 1083.624634,451.404053 1099.298706,467.521027 
	C1125.651855,494.618866 1136.253662,527.626526 1134.066406,565.035217 
	C1133.960815,566.840820 1133.365723,568.617859 1132.909058,570.803345 
z"/>
<path fill="#23596B" opacity="1.000000" stroke="none" 
	d="
M1112.885498,1103.849976 
	C1105.855591,1124.379150 1094.867188,1141.819946 1077.761108,1154.807617 
	C1058.103027,1169.733154 1036.051514,1176.006836 1011.518005,1170.850464 
	C996.292053,1167.650269 986.725464,1157.765259 986.061035,1145.172974 
	C985.088806,1126.746582 992.687500,1112.934082 1008.941528,1104.088745 
	C1020.799500,1097.635498 1033.765259,1095.544678 1047.033447,1095.408936 
	C1068.516357,1095.189087 1090.002930,1095.325562 1111.488037,1095.333496 
	C1112.463867,1095.333862 1113.439575,1095.549316 1115.018188,1095.735718 
	C1114.302490,1098.461426 1113.645142,1100.964355 1112.885498,1103.849976 
z"/>
<path fill="#255A6B" opacity="1.000000" stroke="none" 
	d="
M832.751892,474.127441 
	C834.847961,475.832977 836.766113,477.853302 838.994080,480.199890 
	C837.153320,480.892670 835.506287,481.039856 835.250244,481.714783 
	C834.818604,482.852448 835.269287,484.324829 835.348755,485.656464 
	C836.508545,485.490997 838.301636,485.741119 838.726562,485.093475 
	C841.779480,480.440765 844.563782,475.611176 847.405884,470.821503 
	C847.741760,470.255585 847.732483,469.292480 848.187012,469.019531 
	C852.288513,466.556793 850.908997,461.723419 853.748901,457.846344 
	C850.670959,458.360992 848.494568,458.724945 846.034302,459.136322 
	C851.827454,452.048401 859.108093,448.545746 863.503174,450.709564 
	C862.686218,453.637421 861.974304,456.318115 857.809265,456.145905 
	C856.729309,456.101257 855.559875,458.219971 853.860474,459.914429 
	C861.467163,461.193085 869.311707,455.451813 870.902710,448.416534 
	C869.417053,448.010803 867.909912,447.599213 866.402771,447.187592 
	C866.293945,446.821381 866.185120,446.455170 866.076294,446.088959 
	C867.821899,445.660980 869.638794,444.747650 871.285889,444.989716 
	C872.251343,445.131592 872.946167,447.114380 873.949402,448.533020 
	C874.823730,448.112976 876.286011,447.410492 878.763428,446.220337 
	C879.153809,449.027496 880.537842,452.001556 879.606140,453.720581 
	C877.612366,457.399384 874.890869,461.190430 869.150818,459.725891 
	C869.592468,461.410400 869.899048,462.579712 870.297058,464.097809 
	C864.239136,463.326355 862.603455,468.662598 859.144226,471.398346 
	C860.177124,472.582397 861.339905,474.875763 862.221985,474.772430 
	C868.476074,474.039886 875.294434,474.029144 880.648865,471.283844 
	C883.743652,469.697113 889.061707,467.631836 889.510498,462.025970 
	C889.618408,460.677338 891.475281,458.992981 892.924866,458.325836 
	C896.004944,456.908325 899.006775,455.768036 898.204041,451.215851 
	C893.513428,448.790649 888.371155,446.131897 882.554138,443.124298 
	C882.727295,440.970856 884.683411,439.075043 888.238831,438.437042 
	C905.444519,435.349762 922.334961,436.228577 939.984009,442.510437 
	C937.934326,442.924469 936.921143,443.129150 935.604431,443.395111 
	C936.296448,445.258057 936.842590,446.728394 937.541565,448.610107 
	C935.201477,448.610107 933.172913,448.610107 930.388428,448.610107 
	C932.803650,454.042816 931.452271,460.956573 940.085205,460.984406 
	C939.436829,462.941101 938.895691,464.574097 938.201416,466.669220 
	C936.662598,465.832275 935.375061,465.132050 934.087524,464.431793 
	C933.756653,464.709869 933.425720,464.987915 933.094849,465.265991 
	C934.514099,467.185303 935.933411,469.104645 937.344727,471.013184 
	C935.985168,471.928406 934.608704,472.855042 932.393433,474.346313 
	C930.357666,470.492157 928.323669,466.641296 926.289673,462.790436 
	C925.971252,462.783936 925.652832,462.777405 925.334412,462.770874 
	C925.635376,465.253265 925.411560,467.954285 926.337280,470.176392 
	C928.929871,476.399506 929.117249,476.321442 925.828857,481.549744 
	C923.273376,480.363953 920.874146,478.760437 918.241150,478.124756 
	C911.480225,476.492340 906.289307,478.566467 902.989563,485.125732 
	C902.096863,486.900238 899.370972,487.710022 898.329102,489.463348 
	C897.168457,491.416687 896.815063,493.921783 896.523499,496.238739 
	C896.481689,496.570801 899.017090,496.916840 899.906494,497.743866 
	C901.531921,499.255157 902.818481,501.130890 904.909119,503.654694 
	C907.274719,497.083679 909.460022,491.013489 911.645386,484.943298 
	C912.186829,485.079285 912.728333,485.215271 913.269775,485.351257 
	C912.918884,487.640381 912.567932,489.929474 912.147461,492.672211 
	C913.679993,492.811798 915.219788,492.952087 916.854675,493.100983 
	C914.848999,496.255829 913.233704,499.712799 910.759033,502.369202 
	C909.089233,504.161621 906.260193,505.551147 903.848328,505.726410 
	C902.352966,505.835114 900.667969,503.334442 898.991516,501.941437 
	C894.587585,507.851440 888.824585,512.802185 879.867859,512.460266 
	C881.097534,514.837646 882.311646,517.184937 884.261047,520.953735 
	C876.443359,519.916382 870.001282,519.659546 869.407593,527.903381 
	C869.211853,530.622253 871.456970,533.516968 872.251221,535.496887 
	C881.089783,536.445312 883.591858,529.657654 888.068848,525.936890 
	C891.053894,523.455994 894.891968,522.932434 897.796143,525.752625 
	C900.830383,528.699158 903.917053,531.591614 907.326294,534.836609 
	C907.613403,532.198975 908.331238,529.862976 905.652771,527.394348 
	C904.185425,526.041992 903.923828,523.381287 903.118591,521.310547 
	C903.717590,521.031433 904.316589,520.752319 904.915588,520.473206 
	C908.755432,525.657471 912.595337,530.841736 916.459656,536.059021 
	C920.955566,528.385315 924.051636,519.668030 933.140381,516.132141 
	C935.638855,517.935669 938.196289,519.781738 940.673523,521.569885 
	C934.080933,524.505554 928.135193,527.153137 922.295959,529.753296 
	C923.408936,534.696228 929.148499,537.074402 935.325867,535.329956 
	C935.486145,538.014404 935.640503,540.599670 935.809937,543.436951 
	C930.476990,545.677856 925.335571,546.529785 919.911804,544.170471 
	C916.461060,542.669373 913.785278,543.628052 912.258057,547.333252 
	C907.661011,546.120667 902.820007,545.409485 898.554382,543.447388 
	C896.782410,542.632324 896.239136,539.145996 894.572021,535.709534 
	C891.341553,535.912476 886.981079,536.196350 882.619202,536.457031 
	C879.812317,536.624817 876.998108,536.693665 874.196899,536.924744 
	C870.883118,537.198059 868.284119,538.027954 865.943481,541.194885 
	C863.387878,544.652710 859.371460,547.197083 855.628479,549.565369 
	C851.716064,552.040955 849.613403,555.043091 850.033691,559.741699 
	C850.133423,560.856995 849.865967,562.070435 849.505371,563.151367 
	C846.516907,572.111267 853.324951,585.999451 862.381958,588.622131 
	C865.841125,589.623901 869.607056,589.565857 873.632812,590.037659 
	C873.844543,588.426636 874.026306,587.043213 874.239014,585.424988 
	C874.562073,585.668640 875.035095,585.837097 875.094116,586.098877 
	C875.717896,588.866394 877.617798,589.492126 880.194153,589.777649 
	C882.357605,590.017456 884.498413,590.923218 886.528564,591.810425 
	C891.210938,593.856750 892.975159,597.209717 893.780334,602.601013 
	C894.448914,607.078308 898.793945,611.001526 901.485962,615.185913 
	C902.022156,616.019226 902.447632,616.923767 903.069763,618.061707 
	C901.847473,619.735229 900.598450,621.445374 899.216614,623.337280 
	C900.383972,625.298767 901.543213,627.246643 902.777466,629.320496 
	C875.231384,630.121277 838.414124,612.057495 820.620239,577.153198 
	C802.662598,541.927734 810.080261,500.750641 827.739929,478.840729 
	C828.168213,480.091125 828.581116,481.296539 829.487915,483.944061 
	C830.817932,479.849091 831.695984,477.145660 832.751892,474.127441 
z"/>
<path fill="#265B6C" opacity="1.000000" stroke="none" 
	d="
M969.785278,542.421631 
	C967.721558,544.563416 965.941589,546.907104 963.645142,549.930786 
	C960.908875,546.264465 958.618896,543.196167 956.328979,540.127869 
	C956.602966,539.768860 956.876953,539.409851 957.150940,539.050903 
	C958.335693,539.276123 959.546387,539.410950 960.700867,539.741760 
	C966.758179,541.477478 972.556458,541.227905 977.836975,537.444641 
	C980.320374,535.665405 982.517944,533.827820 985.800781,536.235291 
	C986.807556,536.973633 988.813171,536.349854 990.796570,536.349854 
	C992.630798,539.164429 994.692566,542.328125 997.205200,546.183655 
	C1003.669739,539.083252 997.999268,529.791138 1002.597229,522.757446 
	C1008.900635,566.770874 979.217102,609.856812 944.266296,621.772522 
	C944.376770,621.491882 944.406250,621.136719 944.598938,620.968506 
	C950.932129,615.439331 950.757996,615.491333 948.567139,607.663086 
	C948.111389,606.034729 949.003967,603.520935 950.113831,602.046692 
	C956.310730,593.815308 963.086487,585.966553 965.408813,575.510559 
	C965.690369,574.242737 966.076477,572.998169 966.469055,571.538635 
	C965.808838,571.462769 965.300842,571.239746 964.949280,571.387939 
	C955.114319,575.533203 948.065613,572.754517 943.286255,563.248230 
	C941.155762,559.010559 938.305115,555.137451 935.841003,551.062866 
	C935.360413,550.268127 935.155579,549.306641 934.823547,548.422058 
	C935.179321,548.131470 935.535095,547.840820 935.890869,547.550232 
	C939.329956,551.334106 942.780884,555.107300 946.199829,558.909302 
	C947.083435,559.891846 947.667114,561.515198 948.730347,561.900330 
	C953.109253,563.486267 955.125854,566.687256 955.486206,571.072510 
	C963.260071,569.751709 973.015503,554.982239 973.729553,548.080933 
	C973.902832,546.406006 971.361877,544.450195 969.785278,542.421631 
z"/>
<path fill="#255A6B" opacity="1.000000" stroke="none" 
	d="
M873.617188,582.817871 
	C873.744934,583.684204 873.579285,584.197388 873.413574,584.710571 
	C872.931824,584.136475 872.450012,583.562439 871.968201,582.988403 
	C872.420105,582.813843 872.871948,582.639282 873.617188,582.817871 
z"/>
<path fill="#2B5F6E" opacity="1.000000" stroke="none" 
	d="
M1065.974854,302.003204 
	C1062.151001,305.853394 1058.521606,304.033264 1055.247314,301.767883 
	C1054.621582,301.334900 1054.822510,298.116455 1055.652222,297.459991 
	C1058.472900,295.228516 1064.491821,297.823517 1065.974854,302.003204 
z"/>
</svg>